<?xml version="1.0" encoding="UTF-8" standalone="no"?>
<!-- Created with Inkscape (http://www.inkscape.org/) -->

<svg
   xmlns:dc="http://purl.org/dc/elements/1.1/"
   xmlns:cc="http://creativecommons.org/ns#"
   xmlns:rdf="http://www.w3.org/1999/02/22-rdf-syntax-ns#"
   xmlns:svg="http://www.w3.org/2000/svg"
   xmlns="http://www.w3.org/2000/svg"
   xmlns:sodipodi="http://sodipodi.sourceforge.net/DTD/sodipodi-0.dtd"
   xmlns:inkscape="http://www.inkscape.org/namespaces/inkscape"
   version="1.1"
   id="svg2"
   xml:space="preserve"
   width="107.23305"
   height="43.909332"
   viewBox="0 0 107.23305 43.909332"
   sodipodi:docname="2GIS.svg"
   inkscape:version="0.92.1 r15371"><metadata
     id="metadata8"><rdf:RDF><cc:Work
         rdf:about=""><dc:format>image/svg+xml</dc:format><dc:type
           rdf:resource="http://purl.org/dc/dcmitype/StillImage" /><dc:title></dc:title></cc:Work></rdf:RDF></metadata><defs
     id="defs6"><clipPath
       clipPathUnits="userSpaceOnUse"
       id="clipPath18"><path
         d="M 0,0 H 595.276 V 841.89 H 0 Z"
         id="path16"
         inkscape:connector-curvature="0" /></clipPath></defs><sodipodi:namedview
     pagecolor="#ffffff"
     bordercolor="#666666"
     borderopacity="1"
     objecttolerance="10"
     gridtolerance="10"
     guidetolerance="10"
     inkscape:pageopacity="0"
     inkscape:pageshadow="2"
     inkscape:window-width="1366"
     inkscape:window-height="705"
     id="namedview4"
     showgrid="false"
     fit-margin-top="0"
     fit-margin-left="0"
     fit-margin-right="0"
     fit-margin-bottom="0"
     inkscape:zoom="4.7572162"
     inkscape:cx="29.534708"
     inkscape:cy="35.597386"
     inkscape:window-x="-8"
     inkscape:window-y="-8"
     inkscape:window-maximized="1"
     inkscape:current-layer="g10" /><g
     id="g10"
     inkscape:groupmode="layer"
     inkscape:label="A9R1osdw7y_9tm9tq_3yc"
     transform="matrix(1.3333333,0,0,-1.3333333,-603.31745,105.07066)"><g
       id="g12"><g
         id="g14"
         clip-path="url(#clipPath18)"><g
           id="g20"
           transform="translate(486.8061,62.337)"><path
             d="M 0,0 C 0,2.025 -0.399,3.957 -1.097,5.75 -1.283,-0.148 -7.53,-4.716 -11.198,-7.739 h 9.182 C -0.732,-5.43 0,-2.798 0,0 m -6.638,12.988 c -2.906,2.173 -6.551,3.478 -10.522,3.478 -9.476,0 -17.158,-7.372 -17.158,-16.466 0,-9.094 7.682,-16.466 17.158,-16.466 4.341,0 8.293,1.557 11.313,4.107 H -18.27 l -0.037,3.502 c 7.485,6.244 12.074,10.467 12.074,14.546 0,1.516 -0.602,3.429 -3.309,3.429 -2.144,0 -4.213,-1.192 -3.838,-6.172 h -4.362 c -1.092,5.774 2.181,10.36 8.425,10.36 0.966,0 1.863,-0.112 2.679,-0.318"
             style="fill:#afca0b;fill-opacity:1;fill-rule:nonzero;stroke:none"
             id="path22"
             inkscape:connector-curvature="0" /></g><g
           id="g24"
           transform="translate(502.7218,67.422)"><path
             d="m 0,0 h 4.059 c 0.138,2.963 -0.902,7.657 -7.597,7.657 -4.926,0 -8.501,-2.83 -8.501,-8.722 0,-0.799 0.035,-4.927 0.035,-7.491 0,-6.391 4.615,-7.79 8.5,-7.79 2.325,0 5.689,0.5 7.251,2.131 v 10.187 h -7.632 v -3.696 h 3.4 v -4.493 c -2.568,-0.832 -7.251,-1.166 -7.251,4.493 v 6.659 c 0,3.961 1.908,5.327 4.023,5.327 C -1.526,4.262 0,3.196 0,0 m 30.189,-9.888 c 0.175,9.122 -10.718,6.093 -10.614,11.187 0.034,1.797 1.249,2.963 3.226,2.963 2.115,0 3.365,-1.199 3.329,-4.329 h 3.99 c 0.105,2.831 -0.588,7.658 -7.179,7.658 -4.094,0 -7.46,-1.932 -7.529,-6.226 C 15.238,-7.39 26.2,-4.528 26.026,-9.82 c -0.069,-2.164 -1.699,-3.129 -3.538,-3.129 -2.15,0 -3.885,1.198 -3.538,4.793 h -4.025 c -0.45,-4.76 1.736,-8.157 7.529,-8.157 4.891,0 7.666,2.598 7.735,6.425 M 11.864,-16.012 H 7.77 V 7.291 h 4.094 z m 0,0 H 7.77 V 7.291 h 4.094 z"
             style="fill:#3c3c3b;fill-opacity:1;fill-rule:nonzero;stroke:none"
             id="path26"
             inkscape:connector-curvature="0" /></g></g></g></g></svg>