<svg width="30" height="30" viewBox="0 0 30 30" fill="none" xmlns="http://www.w3.org/2000/svg">
<path d="M19.3612 16.0952C19.1343 15.9815 18.0188 15.4327 17.8106 15.357C17.6027 15.2812 17.4512 15.2433 17.3 15.4706C17.1488 15.6979 16.714 16.2088 16.5815 16.3603C16.4491 16.5118 16.3167 16.5306 16.09 16.417C15.863 16.3033 15.1318 16.0639 14.2652 15.2906C13.5906 14.6888 13.1352 13.9458 13.0027 13.7188C12.8703 13.4915 12.9885 13.3688 13.1021 13.2558C13.2043 13.1539 13.3291 12.9906 13.4424 12.8582C13.5558 12.7258 13.5937 12.6309 13.6694 12.4797C13.7452 12.3282 13.7073 12.1958 13.6506 12.0821C13.594 11.9685 13.14 10.8515 12.9509 10.3973C12.7667 9.95485 12.5797 10.0148 12.4403 10.0079C12.3082 10.0012 12.1567 10 12.0055 10C11.8543 10 11.6085 10.0567 11.4003 10.2839C11.1924 10.5112 10.6061 11.06 10.6061 12.177C10.6061 13.2939 11.4191 14.373 11.5327 14.5242C11.6461 14.6758 13.1327 16.9676 15.4091 17.9506C15.9506 18.1845 16.373 18.3239 16.7027 18.4285C17.2464 18.6012 17.7409 18.577 18.1321 18.5185C18.5682 18.4533 19.4746 17.9697 19.6637 17.4397C19.8527 16.9097 19.8527 16.4552 19.7961 16.3606C19.7394 16.2658 19.5882 16.2088 19.3612 16.0952Z" fill="#02525E"/>
<path fill-rule="evenodd" clip-rule="evenodd" d="M14.8485 29.697C23.0491 29.697 29.697 23.0491 29.697 14.8485C29.697 6.64788 23.0491 0 14.8485 0C6.64788 0 0 6.64788 0 14.8485C0 23.0491 6.64788 29.697 14.8485 29.697ZM15.2185 5.15152C17.6479 5.15242 19.9282 6.09818 21.6427 7.81485C23.3576 9.53152 24.3012 11.813 24.2997 14.24C24.2976 19.247 20.2233 23.3212 15.2182 23.3212H15.2145C13.6948 23.3206 12.2012 22.9394 10.8748 22.2158L6.06061 23.4785L7.34909 18.7724C6.55455 17.3955 6.13636 15.833 6.13697 14.2324C6.13879 9.22515 10.213 5.15152 15.2185 5.15152Z" fill="#02525E"/>
</svg>
