<svg width="100" height="100" viewBox="0 0 100 100" fill="none" xmlns="http://www.w3.org/2000/svg">
<g clip-path="url(#clip0_19_2)">
<path d="M61.0138 50L98.4024 12.6098C99.4309 11.5805 99.9984 10.2074 100 8.74313C100 7.27809 99.4325 5.9033 98.4024 4.87565L95.126 1.60004C94.0959 0.568337 92.7228 0.0032959 91.2569 0.0032959C89.7935 0.0032959 88.4203 0.568337 87.3902 1.60004L50.0016 38.9878L12.6114 1.60004C11.5829 0.568337 10.2089 0.0032959 8.7439 0.0032959C7.28049 0.0032959 5.9065 0.568337 4.87805 1.60004L1.6 4.87565C-0.533333 7.00899 -0.533333 10.4789 1.6 12.6098L38.9894 50L1.6 87.3887C0.570732 88.4196 0.00406504 89.7927 0.00406504 91.257C0.00406504 92.7212 0.570732 94.0944 1.6 95.1244L4.87724 98.4C5.90569 99.4309 7.28049 99.9968 8.74309 99.9968C10.2081 99.9968 11.5821 99.4309 12.6106 98.4L50.0008 61.0114L87.3894 98.4C88.4195 99.4309 89.7927 99.9968 91.2561 99.9968H91.2577C92.722 99.9968 94.0951 99.4309 95.1252 98.4L98.4016 95.1244C99.4301 94.0952 99.9976 92.7212 99.9976 91.257C99.9976 89.7927 99.4301 88.4196 98.4016 87.3895L61.0138 50Z" fill="#02525E"/>
</g>
<defs>
<clipPath id="clip0_19_2">
<rect width="100" height="100" fill="white"/>
</clipPath>
</defs>
</svg>
