<?xml version="1.0" encoding="UTF-8"?> <!-- Generator: Adobe Illustrator 24.1.2, SVG Export Plug-In . SVG Version: 6.00 Build 0) --> <svg xmlns="http://www.w3.org/2000/svg" xmlns:xlink="http://www.w3.org/1999/xlink" id="Layer_1" x="0px" y="0px" viewBox="0 0 512 512" style="enable-background:new 0 0 512 512;" xml:space="preserve"> <style type="text/css"> .st0{fill:#02505E;stroke:#02505E;stroke-width:3;stroke-miterlimit:10;} </style> <g id="Healthy_tooth"> <path class="st0" d="M221.2,43.2c-18.8,0-37.5-2.9-55.5-8.4L119,20.7c-11.2-3.6-23.2-4.3-34.7-1.9c-3.6,0.8-7.2-1.5-8-5.1 c-0.8-3.6,1.5-7.2,5.1-8c13.7-2.9,28-2.1,41.4,2.1L169.4,22c33.7,10.4,69.6,10.4,103.2,0l46.7-14.1c18.5-5.6,36.3-5.2,52.8,1.3 c3.5,1.2,5.3,5.1,4,8.5c-1.2,3.5-5.1,5.3-8.5,4c-0.1,0-0.3-0.1-0.4-0.1c-13.7-5.5-28.6-5.7-44.1-1.1l-46.5,14.1 C258.7,40.2,240,43,221.2,43.2z"></path> <path class="st0" d="M311.6,508h-0.3c-12.6-0.3-23-10-24-22.6c-6.5-85.1-38.3-188.9-66-188.9s-59.5,103.8-66,188.9 c-0.9,12.6-11.3,22.4-24,22.6h-0.3c-22.2,0-42.3-16.5-47.8-39.1L11.4,168.6c-5.2-21.4-6.5-43.7-3.7-65.5c0.5-3.6,3.9-6.3,7.5-5.7 c3.6,0.5,6.3,3.9,5.7,7.5c-2.5,20.2-1.5,40.9,3.5,60.7l71.7,300.3c4,16.5,18.9,28.9,34.9,28.9h0.1c5.7-0.1,10.4-4.7,10.8-10.4 c3.2-41.9,12.9-91.2,25.3-128.7c16-48.1,34.1-72.5,54-72.5s38.2,24.4,54,72.5c12.4,37.4,22.1,86.7,25.3,128.6 c0.4,5.7,5.1,10.2,10.8,10.4h0.1c16,0,30.9-12.4,34.7-28.9l56.7-237.1c0.9-3.6,4.7-5.6,8.1-4.7c3.5,0.9,5.5,4.4,4.8,7.7 l-56.7,237.1C353.9,491.5,333.8,508,311.6,508z"></path> <path class="st0" d="M26.3,68.6c-3.7,0-6.7-3.1-6.7-6.7c0-0.9,0.3-2,0.7-2.8C26,46.8,34,35.5,44,26c2.7-2.5,6.9-2.4,9.5,0.3 c2.5,2.7,2.4,6.9-0.3,9.5c-8.7,8.3-15.7,18.1-20.8,29C31.2,67.1,28.8,68.6,26.3,68.6z"></path> <path class="st0" d="M158.9,256.3c-3.2,0-6-2.3-6.5-5.5c-8.3-42.7-13.4-47.9-56.2-56.2c-3.6-0.7-6-4.1-5.3-7.9 c0.5-2.7,2.7-4.8,5.3-5.3c42.7-8.3,47.9-13.4,56.2-56.2c0.7-3.6,4.1-6,7.9-5.3c2.7,0.5,4.8,2.7,5.3,5.3 c8.3,42.7,13.4,48.1,56.2,56.2c3.6,0.7,6,4.1,5.3,7.9c-0.5,2.7-2.7,4.8-5.3,5.3c-42.7,8.3-47.9,13.4-56.2,56.2 C164.7,254,162.1,256.3,158.9,256.3z M125.2,188.1c18.5,6.3,27.4,15.2,33.7,33.7c6.3-18.4,15.2-27.4,33.7-33.7 c-18.4-6.3-27.4-15.2-33.7-33.7C152.6,173,143.7,181.9,125.2,188.1z"></path> <path class="st0" d="M419.7,185.5c-3.2,0-6-2.3-6.7-5.5c-10.8-56.4-17.8-63.4-74.1-74.1c-3.6-0.7-6-4.1-5.3-7.9 c0.5-2.7,2.7-4.8,5.3-5.3C395.3,81.9,402.2,75,413,18.5c0.7-3.6,4.1-6,7.9-5.3c2.7,0.5,4.8,2.7,5.3,5.3 C437,75,443.9,81.9,500.3,92.7c3.6,0.7,6,4.1,5.3,7.9c-0.5,2.7-2.7,4.8-5.3,5.3c-56.4,10.8-63.4,17.7-74.1,74.1 C425.5,183.1,422.8,185.3,419.7,185.5z M369.9,99.3c29.3,8.5,41.3,20.5,49.8,49.8c8.5-29.3,20.5-41.3,49.8-49.8 c-29.3-8.5-41.3-20.5-49.8-49.8C411,78.7,399,90.8,369.9,99.3L369.9,99.3z"></path> </g> </svg> 