<?xml version="1.0" encoding="UTF-8"?> <!-- Generator: Adobe Illustrator 24.1.2, SVG Export Plug-In . SVG Version: 6.00 Build 0) --> <svg xmlns="http://www.w3.org/2000/svg" xmlns:xlink="http://www.w3.org/1999/xlink" id="Layer_1" x="0px" y="0px" viewBox="0 0 100.4 100.4" style="enable-background:new 0 0 100.4 100.4;" xml:space="preserve"> <style type="text/css"> .st0{fill:#02505E;} </style> <g> <path class="st0" d="M32.3,42.4h-9.8c-0.8,0-1.5,0.7-1.5,1.5v9.8c0,0.8,0.7,1.5,1.5,1.5h9.8c0.8,0,1.5-0.7,1.5-1.5v-9.8 C33.8,43.1,33.1,42.4,32.3,42.4z M30.8,52.2H24v-6.8h6.8V52.2z"></path> <path class="st0" d="M55.1,42.4h-9.8c-0.8,0-1.5,0.7-1.5,1.5v9.8c0,0.8,0.7,1.5,1.5,1.5h9.8c0.8,0,1.5-0.7,1.5-1.5v-9.8 C56.6,43.1,55.9,42.4,55.1,42.4z M53.6,52.2h-6.8v-6.8h6.8V52.2z"></path> <path class="st0" d="M77.1,42.4h-9.8c-0.8,0-1.5,0.7-1.5,1.5v9.8c0,0.8,0.7,1.5,1.5,1.5h9.8c0.8,0,1.5-0.7,1.5-1.5v-9.8 C78.6,43.1,77.9,42.4,77.1,42.4z M75.6,52.2h-6.8v-6.8h6.8V52.2z"></path> <path class="st0" d="M32.3,64.7h-9.8c-0.8,0-1.5,0.7-1.5,1.5v9.8c0,0.8,0.7,1.5,1.5,1.5h9.8c0.8,0,1.5-0.7,1.5-1.5v-9.8 C33.8,65.3,33.1,64.7,32.3,64.7z M30.8,74.4H24v-6.8h6.8V74.4z"></path> <path class="st0" d="M55.1,64.7h-9.8c-0.8,0-1.5,0.7-1.5,1.5v9.8c0,0.8,0.7,1.5,1.5,1.5h9.8c0.8,0,1.5-0.7,1.5-1.5v-9.8 C56.6,65.3,55.9,64.7,55.1,64.7z M53.6,74.4h-6.8v-6.8h6.8V74.4z"></path> <path class="st0" d="M77.1,64.7h-9.8c-0.8,0-1.5,0.7-1.5,1.5v9.8c0,0.8,0.7,1.5,1.5,1.5h9.8c0.8,0,1.5-0.7,1.5-1.5v-9.8 C78.6,65.3,77.9,64.7,77.1,64.7z M75.6,74.4h-6.8v-6.8h6.8V74.4z"></path> <path class="st0" d="M89,13.4h-9.9c0,0,0,0,0,0v-2c0-3.3-2.7-5.9-5.9-5.9s-5.9,2.7-5.9,5.9v2H56v-2c0-3.3-2.7-5.9-5.9-5.9 s-5.9,2.7-5.9,5.9v2H33v-2c0-3.3-2.7-5.9-5.9-5.9s-5.9,2.7-5.9,5.9v2c0,0,0,0,0,0h-9.9c-0.8,0-1.5,0.7-1.5,1.5v77.7 c0,0.8,0.7,1.5,1.5,1.5H89c0.8,0,1.5-0.7,1.5-1.5V14.9C90.5,14.1,89.8,13.4,89,13.4z M70.2,11.4c0-1.6,1.3-2.9,2.9-2.9 s2.9,1.3,2.9,2.9v8.3c0,1.6-1.3,2.9-2.9,2.9s-2.9-1.3-2.9-2.9V11.4z M50.1,8.5c1.6,0,2.9,1.3,2.9,2.9v8.3c0,1.6-1.3,2.9-2.9,2.9 s-2.9-1.3-2.9-2.9V15c0,0,0-0.1,0-0.1s0-0.1,0-0.1v-3.4C47.2,9.8,48.5,8.5,50.1,8.5z M24.2,11.4c0-1.6,1.3-2.9,2.9-2.9 c1.6,0,2.9,1.3,2.9,2.9v8.3c0,1.6-1.3,2.9-2.9,2.9s-2.9-1.3-2.9-2.9V11.4z M87.5,91.1H12.8V16.4h8.4c0,0,0,0,0,0v3.3 c0,3.3,2.7,5.9,5.9,5.9s5.9-2.7,5.9-5.9v-3.3h11.2v3.3c0,3.3,2.7,5.9,5.9,5.9s5.9-2.7,5.9-5.9v-3.3h11.2v3.3c0,3.3,2.7,5.9,5.9,5.9 s5.9-2.7,5.9-5.9v-3.3c0,0,0,0,0,0h8.4V91.1z"></path> </g> </svg> 