<?xml version="1.0" encoding="UTF-8"?> <!-- Generator: Adobe Illustrator 24.1.2, SVG Export Plug-In . SVG Version: 6.00 Build 0) --> <svg xmlns="http://www.w3.org/2000/svg" xmlns:xlink="http://www.w3.org/1999/xlink" id="Layer_1" x="0px" y="0px" viewBox="0 0 50 50" style="enable-background:new 0 0 50 50;" xml:space="preserve"> <style type="text/css"> .st0{fill:#02505E;} </style> <g id="Layer_1_1_"> <path class="st0" d="M25,1C11.8,1,1,11.8,1,25s10.8,24,24,24s24-10.8,24-24S38.2,1,25,1z M25,47C12.9,47,3,37.1,3,25S12.9,3,25,3 s22,9.9,22,22S37.1,47,25,47z"></path> <path class="st0" d="M26,23.3V7h-2v16.3c-0.6,0.3-1,1-1,1.7c0,0.2,0,0.3,0.1,0.5l-8.8,8.8l1.4,1.4l8.8-8.8c0.2,0,0.3,0.1,0.5,0.1 c1.1,0,2-0.9,2-2C27,24.3,26.6,23.6,26,23.3z"></path> </g> </svg> 