<svg xmlns="http://www.w3.org/2000/svg" viewBox="0 0 1643.49 394.51"><defs><style>.cls-1,.cls-2{fill:#fff;}.cls-2{stroke:#fff;stroke-miterlimit:10;stroke-width:10px;}</style></defs><g id="Layer_2" data-name="Layer 2"><g id="Слой_1" data-name="Слой 1"><path class="cls-1" d="M136.74,158.21H52.47V139.72h84q-2.67-34.92-18.36-52.39Q104.74,72.54,83.58,72.54q-19.77,0-33.15,12.11Q38.31,95.74,33.6,115l-22.44-6.12q7.65-27,28.82-41.81Q58.72,53.8,83.83,53.8q37.74,0,58.65,29.7,18.6,26.52,18.61,70.25,0,49.84-24.73,76.74-20.91,22.83-54.19,22.82-55.57,0-72.28-54.56l21.67-7.39q10.71,43.08,50.36,43.09,28.68-.76,42.83-25.37Q135.85,190.46,136.74,158.21Z"/><path class="cls-1" d="M345.11,230.88h20.27v53.79H346V249.62H208.58v35.05H189.2V230.88h19.89a217.22,217.22,0,0,0,15.68-55.71q3.82-25.63,3.82-62.6V57.24H345.11Zm-22.18,0V76H250.77v36.59q0,42.45-5.1,70.88a213.89,213.89,0,0,1-14.15,47.43Z"/><path class="cls-1" d="M532.07,57.24V76.36H433.65v61.58H508.1v19.12H433.65v73.43h100.2v19.13H411V57.24Z"/><path class="cls-1" d="M593.58,209.2a205.61,205.61,0,0,0,8.29-43.34q1.9-20,1.91-51.89V57.5H725.65V249.62H703v-173H626.47v37.86q0,37.86-2.55,59.92a223.6,223.6,0,0,1-7.39,36.84q-6.88,23.85-18.49,33.53-10.32,8.55-27.15,8.54-4,0-14.15-.51l-1.28-18.86a63.44,63.44,0,0,0,12.5,1.4,20.24,20.24,0,0,0,15.29-6.25Q589.25,222.85,593.58,209.2Z"/><path class="cls-1" d="M782.32,57.24H804.5v81.21h43.09q35.05,0,52.4,16.83,14.65,14.28,14.66,39,0,26.9-18.61,41.69Q879,249.62,849.12,249.62h-66.8ZM804.5,231.39h43.6q22.7,0,34-11.73,9.06-9.57,9.05-25.12,0-37.86-44.62-37.86H804.5Z"/><path class="cls-1" d="M960.1,57.24h63.74q35.7,0,51.25,14,12.62,11.47,12.62,33.15,0,18.24-12.75,29.83-11.09,9.94-28.94,12.5v2.16q24.36,3.06,36.85,16.83,10.83,12,10.83,30.09,0,27-19.76,41.3-17.34,12.49-46.53,12.5H960.1Zm22.18,18.23v63.74H1017q24.72,0,37.22-10.07,10.59-8.67,10.58-23.07,0-17.08-11-24.1-10.2-6.5-32.89-6.5Zm0,82v73.95h42.33q45.63,0,45.64-36.59,0-18.75-15-28.56-13.38-8.79-36.59-8.8Z"/><path class="cls-1" d="M1260.26,57.24V76.36h-98.42v61.58h74.45v19.12h-74.45v73.43h100.21v19.13h-122.9V57.24Z"/><path class="cls-1" d="M1302.4,57.24h21.16V159.61q0,8.16-2,63.11h4.08q3.18-6.76,8.67-18.74,11.2-24.87,18.48-38.89l55.08-107.85h35.31V249.62H1422V139q0-12.36.51-32.89t.51-28.94h-4q-26,53.41-27.41,56.09l-60.3,116.4H1302.4ZM1354.15,0q1.78,20.15,20.27,20.14,18.87,0,20.66-20.14h11.73q0,18.36-9.44,27.66-8.41,8.16-22.95,8.16-16.58,0-24.86-10.58Q1342.3,16.06,1342.3,0Z"/><path class="cls-1" d="M1638.51,108.87,1615.94,115q-9.69-42.45-46.65-42.45-27.16,0-42.58,23.46-14.16,21.41-14.16,57.49,0,41.06,18.23,62.85,15.18,18.1,38.51,18.11,39.14,0,48.82-43.09l21.67,7.39q-15.67,54.57-70.75,54.56-38.12,0-60.3-29.57-20.14-26.66-20.14-69.86,0-49.72,25.88-77.13,21.66-22.95,54.56-23,28.68,0,47.43,16.57Q1632.39,84.53,1638.51,108.87Z"/><line class="cls-2" y1="318.77" x2="1643.49" y2="318.77"/><path class="cls-1" d="M345.75,361.92l-7.51,1.82q-1.65-9.4-9.35-9.41a9.36,9.36,0,0,0-8.44,4.88c-1.83,3-2.74,7.06-2.74,12.21q0,8.81,3.55,13.37a9.27,9.27,0,0,0,7.63,3.75q8,0,9.8-9.53l7.31,2.25q-3.4,13.25-17.17,13.25-9.42,0-14.65-6.81-4.68-6.07-4.68-16.2,0-11.62,6.05-17.87a17.72,17.72,0,0,1,13.28-5.27q7.23,0,11.77,4.09A17.28,17.28,0,0,1,345.75,361.92Z"/><path class="cls-1" d="M384.21,362.2v5.05H374.12V393.7h-7V367.25h-9.87V362.2Z"/><path class="cls-1" d="M410.64,361.5a13,13,0,0,1,10.79,5q3.45,4.4,3.45,11.46,0,8.16-4.43,12.69a13.18,13.18,0,0,1-9.86,3.9q-6.94,0-10.82-5-3.42-4.37-3.42-11.46,0-8.13,4.46-12.69A13.21,13.21,0,0,1,410.64,361.5Zm0,5.21q-6.88,0-6.89,11.27t6.84,11.32q6.89,0,6.89-11.32T410.64,366.71Z"/><path class="cls-1" d="M472.52,362.2v31.5h-6.19V379.41l.39-12.78h-.56q-1.82,8.36-2.8,12.05l-4,15h-7l-3.73-14.52q-.67-2.46-1.62-6.64t-1.38-5.91H445q.45,11.6.45,12.78V393.7h-5.63V362.2h10.11l3.56,14.63q1.37,5.94,2.32,10.51h.59l2.36-10.46,3.5-14.68Z"/><path class="cls-1" d="M488.54,370.13q2.43-8.69,13-8.68,12.22,0,12.22,10.45v12.49a87,87,0,0,0,.51,9.31h-6.65c-.2-1.18-.38-2.55-.53-4.12q-3.39,4.88-9.92,4.87a9.53,9.53,0,0,1-7.34-2.86,9.12,9.12,0,0,1-2.35-6.5q0-8.4,10.28-10.39a59.09,59.09,0,0,1,9-.9V372c0-2.09-.5-3.58-1.49-4.46a6,6,0,0,0-4-1.12,5.63,5.63,0,0,0-4.09,1.6,7.11,7.11,0,0,0-1.93,3.92Zm18.24,8.13a35.09,35.09,0,0,0-7.23.92c-3.44.82-5.16,2.61-5.16,5.35q0,4.77,5,4.77,4.6,0,7.35-5.19Z"/><path class="cls-1" d="M554.56,362.2v5.05H544.48V393.7h-7V367.25h-9.86V362.2Z"/><path class="cls-1" d="M581,361.5a13,13,0,0,1,10.79,5q3.44,4.4,3.44,11.46,0,8.16-4.42,12.69a13.2,13.2,0,0,1-9.87,3.9q-6.95,0-10.81-5-3.42-4.37-3.42-11.46,0-8.13,4.45-12.69A13.21,13.21,0,0,1,581,361.5Zm0,5.21q-6.9,0-6.89,11.27t6.83,11.32q6.9,0,6.89-11.32T581,366.71Z"/><path class="cls-1" d="M612.65,384.28a105.12,105.12,0,0,0,.7-12.94V362.2h24.09v31.5h-6.83V367.13H620.1v4.43a92.83,92.83,0,0,1-.7,13.14q-.78,5.49-3.06,7.71a8.11,8.11,0,0,1-5.88,2c-.69,0-1.75,0-3.17-.14l-.56-5.38a8.8,8.8,0,0,0,2.08.19,3.07,3.07,0,0,0,2.6-1.12A8.35,8.35,0,0,0,612.65,384.28Z"/><path class="cls-1" d="M666.65,361.5a13,13,0,0,1,10.79,5q3.45,4.4,3.45,11.46,0,8.16-4.43,12.69a13.18,13.18,0,0,1-9.86,3.9q-7,0-10.82-5-3.42-4.37-3.42-11.46,0-8.13,4.46-12.69A13.19,13.19,0,0,1,666.65,361.5Zm0,5.21q-6.89,0-6.89,11.27t6.84,11.32q6.89,0,6.89-11.32T666.65,366.71Z"/><path class="cls-1" d="M718.14,362.2v5.05H702.87V393.7h-7V362.2Z"/><path class="cls-1" d="M732.19,362.2h6.19v11.88q0,6.14-.33,11.83h.61q2.36-6.36,4.48-11l5.8-12.75h9.53v31.5h-6.08V379.77q0-5.07.28-11.94h-.61q-1.77,4.94-4.43,10.6l-7.29,15.27h-8.15Z"/><path class="cls-1" d="M794.4,379.77q-3.21,3.62-9.41,3.61c-3.25,0-5.74-.86-7.48-2.6a8.82,8.82,0,0,1-2.33-6.47V362.2h7.06v10.85q0,5.07,5.27,5.07a9,9,0,0,0,6.89-2.89v-13h7v31.5h-7Z"/><path class="cls-1" d="M844.66,379.52h-21.3c0,3.29.8,5.81,2.3,7.56a7,7,0,0,0,5.63,2.38q5.07,0,6.64-6l6.56,1.9q-3,9.13-13.28,9.14-7.55,0-11.46-4.88-3.45-4.26-3.45-11.48,0-8.19,4.49-12.73a13.12,13.12,0,0,1,9.8-3.92,12.77,12.77,0,0,1,10.54,4.85q3.52,4.39,3.53,11.68Zm-7.06-4.76q-.54-8.26-6.9-8.27a6.33,6.33,0,0,0-5.35,2.52,10.64,10.64,0,0,0-1.88,5.75Z"/><path class="cls-1" d="M884.65,371.56l-7,1.6q-1-6.39-5.58-6.39Q865,366.77,865,378t7.06,11.26q5,0,6-6.61l6.72,1.85a12.52,12.52,0,0,1-5,7.79,13.62,13.62,0,0,1-8,2.24q-7.18,0-11-4.93-3.3-4.32-3.3-11.49,0-8.2,4.37-12.69a13.2,13.2,0,0,1,9.92-3.9,12.9,12.9,0,0,1,8.82,3A12.66,12.66,0,0,1,884.65,371.56Z"/><path class="cls-1" d="M910.19,378.73l-4.59,4.88V393.7h-6.84V362.2h6.84v13.7l11.6-13.7h8l-10.48,11.72,11.07,19.78H918Z"/><path class="cls-1" d="M937.92,370.13q2.43-8.69,13-8.68,12.21,0,12.21,10.45v12.49a87,87,0,0,0,.51,9.31H957c-.21-1.18-.39-2.55-.53-4.12q-3.4,4.88-9.92,4.87a9.51,9.51,0,0,1-7.34-2.86,9.13,9.13,0,0,1-2.36-6.5q0-8.4,10.28-10.39a59.23,59.23,0,0,1,9-.9V372c0-2.09-.5-3.58-1.49-4.46a6,6,0,0,0-4-1.12,5.64,5.64,0,0,0-4.1,1.6,7.11,7.11,0,0,0-1.93,3.92Zm18.24,8.13a35.09,35.09,0,0,0-7.23.92c-3.44.82-5.16,2.61-5.16,5.35,0,3.18,1.69,4.77,5.05,4.77q4.59,0,7.34-5.19Z"/><path class="cls-1" d="M1001.87,362.2v31.5H995.4V380h-5.52l-6.14,13.7h-7.45L983.52,379a7.34,7.34,0,0,1-4.68-2.94,9.14,9.14,0,0,1,1.62-11.65q2.87-2.22,8.16-2.22ZM995.4,367h-5.74q-5.5,0-5.5,4.15t5.66,4.06h5.58Z"/><path class="cls-1" d="M1049.53,378.73l-4.59,4.88V393.7h-6.84V362.2h6.84v13.7l11.6-13.7h8L1054,373.92l11.06,19.78h-7.7Z"/><path class="cls-1" d="M1080.59,384.28a103.18,103.18,0,0,0,.7-12.94V362.2h24.1v31.5h-6.84V367.13H1088v4.43a91.33,91.33,0,0,1-.7,13.14q-.78,5.49-3,7.71a8.12,8.12,0,0,1-5.88,2c-.7,0-1.75,0-3.17-.14l-.56-5.38a8.65,8.65,0,0,0,2.07.19,3.09,3.09,0,0,0,2.61-1.12A8.23,8.23,0,0,0,1080.59,384.28Z"/><path class="cls-1" d="M1122.21,362.2h6.2v11.88q0,6.14-.34,11.83h.62q2.34-6.36,4.48-11l5.8-12.75h9.53v31.5h-6.09V379.77q0-5.07.29-11.94h-.62q-1.77,4.94-4.43,10.6l-7.28,15.27h-8.16Z"/><path class="cls-1" d="M1192,362.2v31.5h-6.94V379.63h-12.72V393.7h-6.95V362.2h6.95v12.5h12.72V362.2Z"/><path class="cls-1" d="M1208.88,362.2h6.19v11.88q0,6.14-.34,11.83h.62q2.36-6.36,4.48-11l5.8-12.75h9.53v31.5h-6.08V379.77q0-5.07.28-11.94h-.62q-1.77,4.94-4.43,10.6L1217,393.7h-8.15Z"/><path class="cls-1" d="M1263.47,378.73l-4.59,4.88V393.7H1252V362.2h6.84v13.7l11.6-13.7h8L1268,373.92,1279,393.7h-7.7Z"/><path class="cls-1" d="M1291.2,370.13q2.43-8.69,13-8.68,12.22,0,12.22,10.45v12.49a87,87,0,0,0,.51,9.31h-6.65c-.2-1.18-.38-2.55-.53-4.12q-3.39,4.88-9.92,4.87a9.53,9.53,0,0,1-7.34-2.86,9.12,9.12,0,0,1-2.35-6.5q0-8.4,10.28-10.39a59.09,59.09,0,0,1,9-.9V372c0-2.09-.5-3.58-1.49-4.46a6,6,0,0,0-4-1.12,5.62,5.62,0,0,0-4.09,1.6A7.11,7.11,0,0,0,1298,372Zm18.24,8.13a35.09,35.09,0,0,0-7.23.92c-3.44.82-5.16,2.61-5.16,5.35q0,4.77,5,4.77,4.61,0,7.35-5.19Z"/></g></g></svg>