<svg xmlns="http://www.w3.org/2000/svg" viewBox="0 0 21.62 21.62"><defs><style>.cls-1{fill:#fff;}.cls-2{fill:#0a5d6c;}</style></defs><g id="Layer_2" data-name="Layer 2"><g id="Layer_1-2" data-name="Layer 1"><circle class="cls-1" cx="10.81" cy="10.81" r="10.81"/><path class="cls-2" d="M14,6.94a.72.72,0,1,0,.72.72A.72.72,0,0,0,14,6.94Zm-3.2.92a3,3,0,1,0,3,3A3,3,0,0,0,10.83,7.86Zm0,5a1.94,1.94,0,1,1,1.94-1.94A1.94,1.94,0,0,1,10.83,12.83Zm6.11-4.46a3.7,3.7,0,0,0-3.7-3.69H8.37A3.69,3.69,0,0,0,4.68,8.37v4.88a3.69,3.69,0,0,0,3.69,3.69h4.87a3.7,3.7,0,0,0,3.7-3.69Zm-1.16,4.88a2.53,2.53,0,0,1-2.54,2.53H8.37a2.53,2.53,0,0,1-2.53-2.53V8.37A2.53,2.53,0,0,1,8.37,5.84h4.87a2.53,2.53,0,0,1,2.54,2.53v4.88Z"/></g></g></svg>