<svg width="1200" height="668" viewBox="0 0 1200 668" fill="none" xmlns="http://www.w3.org/2000/svg">
<g clip-path="url(#clip0_8_26)">
<rect width="1200" height="668" fill="white"/>
<g clip-path="url(#clip1_8_26)">
<path opacity="0.5" d="M1224 -195H-25V1054H1224V-195Z" fill="white" stroke="#02505E" stroke-miterlimit="10"/>
<g opacity="0.5">
<path opacity="0.5" d="M1422.28 1178.9L1116.27 955.641L786.85 835.425L457.426 644.953L37.4501 740.189L435.569 997.795L172.342 1178.28L37.4501 740.189L-332.566 574.696L134.248 401.398L-73.3987 162.526L172.654 -71.0367L-132.726 -293.671M1175.6 162.526L1594.02 212.174L1175.6 162.526Z" stroke="#02505E" stroke-width="0.5" stroke-miterlimit="2"/>
<path opacity="0.5" d="M552.663 1217.93L435.569 997.795M-73.3987 162.526L345.016 212.486L583.888 401.398L916.434 574.696L456.49 644.328L133.311 400.773L-73.3987 162.526Z" stroke="#02505E" stroke-width="0.5" stroke-miterlimit="2"/>
<path opacity="0.5" d="M786.85 835.425L877.402 1119.57L1116.27 955.641L1286.45 740.189L916.434 574.696L786.85 835.425ZM786.85 835.425L435.569 997.795L457.426 644.952L583.887 401.397L816.514 224.976L1175.6 162.526L876.466 -130.364L552.662 -31.0688L435.569 -251.205L172.654 -70.7246L345.328 212.798L134.247 401.397L37.4499 740.189L-132.726 955.641L173.279 1178.9" stroke="#02505E" stroke-width="0.5" stroke-miterlimit="2"/>
<path opacity="0.5" d="M583.888 401.397H134.248M786.85 -413.575L878.339 -128.491L1116.59 -293.359L786.85 -413.575ZM916.434 574.696L816.514 224.976L345.016 212.486L552.663 -31.0688L916.434 574.696ZM1383.25 401.397L816.514 224.976L1383.25 401.397Z" stroke="#02505E" stroke-width="0.5" stroke-miterlimit="2"/>
<path opacity="0.5" d="M134.248 401.398L-432.486 224.976M-371.597 -129.428L172.654 -70.7245L552.663 -31.0688L816.514 224.976L876.778 -130.364L1422.28 -70.1L1175.6 162.526L1383.25 401.398L916.434 574.696L1116.27 955.641L-371.597 -129.428ZM435.569 -251.205L876.778 -130.052L435.569 -251.205ZM877.403 1119.57L435.569 997.795L877.403 1119.57ZM37.45 -508.811L173.279 -70.1L37.45 -508.811Z" stroke="#02505E" stroke-width="0.5" stroke-miterlimit="2"/>
</g>
<g opacity="0.5">
<path opacity="0.5" d="M1175.6 170.332C1179.91 170.332 1183.41 166.837 1183.41 162.526C1183.41 158.215 1179.91 154.72 1175.6 154.72C1171.29 154.72 1167.79 158.215 1167.79 162.526C1167.79 166.837 1171.29 170.332 1175.6 170.332Z" fill="#02505E" stroke="#02505E" stroke-miterlimit="10"/>
<path opacity="0.5" d="M816.514 232.782C820.825 232.782 824.32 229.287 824.32 224.976C824.32 220.665 820.825 217.17 816.514 217.17C812.202 217.17 808.708 220.665 808.708 224.976C808.708 229.287 812.202 232.782 816.514 232.782Z" fill="#02505E" stroke="#02505E" stroke-miterlimit="10"/>
<path opacity="0.5" d="M916.434 582.503C920.745 582.503 924.24 579.008 924.24 574.696C924.24 570.385 920.745 566.89 916.434 566.89C912.122 566.89 908.627 570.385 908.627 574.696C908.627 579.008 912.122 582.503 916.434 582.503Z" fill="#02505E" stroke="#02505E" stroke-miterlimit="10"/>
<path opacity="0.5" d="M457.426 652.759C461.738 652.759 465.233 649.264 465.233 644.952C465.233 640.641 461.738 637.146 457.426 637.146C453.115 637.146 449.62 640.641 449.62 644.952C449.62 649.264 453.115 652.759 457.426 652.759Z" fill="#02505E" stroke="#02505E" stroke-miterlimit="10"/>
<path opacity="0.5" d="M134.248 409.204C138.559 409.204 142.054 405.709 142.054 401.397C142.054 397.086 138.559 393.591 134.248 393.591C129.936 393.591 126.441 397.086 126.441 401.397C126.441 405.709 129.936 409.204 134.248 409.204Z" fill="#02505E" stroke="#02505E" stroke-miterlimit="10"/>
<path opacity="0.5" d="M345.016 220.293C349.327 220.293 352.822 216.798 352.822 212.486C352.822 208.175 349.327 204.68 345.016 204.68C340.705 204.68 337.21 208.175 337.21 212.486C337.21 216.798 340.705 220.293 345.016 220.293Z" fill="#02505E" stroke="#02505E" stroke-miterlimit="10"/>
<path opacity="0.5" d="M583.888 409.204C588.199 409.204 591.694 405.709 591.694 401.397C591.694 397.086 588.199 393.591 583.888 393.591C579.576 393.591 576.081 397.086 576.081 401.397C576.081 405.709 579.576 409.204 583.888 409.204Z" fill="#02505E" stroke="#02505E" stroke-miterlimit="10"/>
</g>
</g>
</g>
<g clip-path="url(#clip2_8_26)">
<path d="M841.494 525.611C811.569 504.285 787.848 479.439 770.999 451.764C766.557 444.467 763.189 437.992 759.932 431.733C753.133 418.683 747.27 407.392 733.672 392.655C726.438 384.817 721.122 380.477 715.979 376.281C709.812 371.242 703.426 366.033 694.684 355.508C677.438 334.741 662.543 316.809 663.802 292.295C665.135 266.364 683.895 245.534 701.01 234.686C711.169 228.247 721.678 224.498 731.4 223.85C735.217 223.597 744.678 223.419 755.896 224.386C762.9 224.987 768.034 225.814 772.164 226.488C777.15 227.295 781.749 227.807 786.077 227.059C789.394 226.484 793.627 224.922 800.291 218.838C814.733 205.674 812.788 196.726 821.668 192.145C830.326 187.678 843.416 190.353 850.298 197.21C861.065 207.932 852.463 224.724 853.434 244.552C855.876 294.282 916.744 326.71 912.256 332.767C907.951 338.565 860.038 298.032 836.869 312.361C824.681 319.898 823.802 339.852 824.617 362.927C825.878 398.555 831.543 451.891 852.848 518.867C853.012 520.253 852.77 521.657 852.152 522.909C851.534 524.161 850.565 525.208 849.364 525.921C848.163 526.634 846.781 526.984 845.386 526.928C843.991 526.871 842.642 526.412 841.504 525.604L841.494 525.611Z" fill="#ADDADB"/>
<path d="M834.225 487.962C819.932 477.46 806.52 465.721 794.578 452.611C785.829 443.031 777.95 432.692 771.033 421.716C763.288 409.394 757.385 396.052 749.747 383.681C741.156 369.768 730.161 357.311 717.697 346.748C712.792 342.592 707.83 338.537 703.339 333.925C697.268 327.683 691.825 320.77 686.486 313.903C677.185 301.944 668.219 288.481 668.209 272.757C668.2 259.752 674.124 247.408 682.559 237.739C690.505 228.645 700.962 221.175 712.629 217.752C717.642 216.281 722.615 215.995 727.803 216.079C736.362 216.2 744.898 216.972 753.338 218.389C758.811 219.308 764.399 220.795 769.987 220.489C775.75 220.173 781.344 218.069 786.131 214.893C789.681 212.537 792.833 209.61 795.655 206.43C797.564 204.278 794.261 201.261 792.342 203.424C787.602 208.783 781.826 213.326 774.823 215.202C769.941 216.507 765.247 215.975 760.368 215.105C752.211 213.631 744.07 212.43 735.806 211.913C729.758 211.541 723.462 211.145 717.446 212.11C705.17 214.08 693.913 220.673 684.847 229C675.187 237.871 667.58 249.549 664.828 262.483C663.316 269.598 663.398 276.958 665.068 284.034C666.824 291.454 670.33 298.38 674.418 304.769C679.076 312.029 684.542 318.742 690.003 325.406C695.14 331.651 700.389 337.716 706.449 343.088C711.295 347.387 716.408 351.364 721.128 355.804C727.72 362.006 733.751 368.778 739.151 376.041C748.147 388.155 754.38 401.814 761.759 414.901C768.212 426.348 775.678 437.194 784.068 447.309C794.747 460.116 806.653 471.848 819.616 482.339C823.402 485.418 827.265 488.4 831.205 491.286C832.174 491.996 833.489 492.101 834.367 491.129C835.114 490.3 835.198 488.69 834.216 487.968L834.225 487.962Z" fill="#065C6C"/>
<path d="M988.937 436.827C984.008 438.872 979.556 436.073 977.803 434.972C974.878 433.145 971.25 430.21 965.241 425.345C958.708 420.07 949.755 412.833 936.744 403.005C901.786 376.599 887.52 369.196 878.037 372.541C875.146 373.558 872.447 375.495 870.011 378.317C869.128 379.347 867.904 380.027 866.562 380.233C865.221 380.438 863.85 380.156 862.7 379.438L860.982 378.358C860.296 377.927 859.712 377.353 859.267 376.676C858.823 375.999 858.529 375.235 858.406 374.435C858.282 373.634 858.332 372.817 858.552 372.037C858.772 371.257 859.157 370.533 859.68 369.914C863.706 365.162 868.376 361.831 873.623 359.982C881.811 357.099 890.391 358.208 901.481 363.56C911.469 368.381 924.43 376.993 944.79 392.382C957.975 402.341 967.023 409.653 973.636 414.998L973.753 415.094C977.746 418.322 983.623 414.985 982.913 409.9C982.102 404.08 980.541 396.603 977.828 387.386C970.983 364.146 959.835 339.79 946.438 318.808C936.309 302.948 928.076 293.943 920.814 285.999C910.742 274.979 902.786 266.275 896.969 246.52C892.978 232.978 892.263 222.035 891.631 212.379C890.752 198.983 890.12 189.304 881.562 177.568C877.92 172.576 864.327 156.043 842.284 152.981C814.039 149.04 792.981 169.664 787.198 176.078C782.213 181.619 778.154 187.925 775.176 194.756C774.616 196.061 773.582 197.105 772.282 197.679C770.983 198.253 769.514 198.312 768.173 197.846L766.217 197.153C765.489 196.897 764.822 196.493 764.257 195.969C763.692 195.444 763.24 194.809 762.931 194.102C762.621 193.396 762.46 192.633 762.457 191.862C762.454 191.09 762.609 190.326 762.913 189.617C766.465 181.408 771.326 173.828 777.306 167.174C784.201 159.526 809.383 134.946 844.108 139.773C871.343 143.558 887.884 163.636 892.305 169.699C903.153 184.556 903.997 197.641 904.905 211.486C905.52 220.889 906.157 230.612 909.73 242.736C914.683 259.544 921.031 266.486 930.641 277.002C937.888 284.931 946.909 294.799 957.655 311.627C970.733 332.106 981.938 356.058 989.212 379.073C995.935 400.37 998.437 418.018 996.05 427.508C995.004 431.681 992.985 434.635 990.046 436.292C989.688 436.493 989.317 436.671 988.937 436.827Z" fill="#ADDADB"/>
</g>
<defs>
<clipPath id="clip0_8_26">
<rect width="1200" height="668" fill="white"/>
</clipPath>
<clipPath id="clip1_8_26">
<rect width="1249" height="1249" fill="white" transform="translate(-25 -195)"/>
</clipPath>
<clipPath id="clip2_8_26">
<rect width="269.398" height="344.936" fill="white" transform="translate(629 257.225) rotate(-32.3683)"/>
</clipPath>
</defs>
</svg>
