<?xml version="1.0" encoding="UTF-8"?> <svg xmlns="http://www.w3.org/2000/svg" viewBox="0 0 30 27"> <defs> <style>.cls-1{fill:#02505e;fill-rule:evenodd;}</style> </defs> <g id="Layer_2" data-name="Layer 2"> <g id="Layer_1-2" data-name="Layer 1"> <g id="Page-1"> <g id="icon-70-document-file-pdf"> <path id="document-file-pdf" class="cls-1" d="M19,10V7h0L13,0H2A2,2,0,0,0,0,2V25a2,2,0,0,0,2,2H17a2,2,0,0,0,2-2V23h8a3,3,0,0,0,3-3V13a3,3,0,0,0-3-3ZM18,23v2a1,1,0,0,1-1,1H2a1,1,0,0,1-1-1V2A1,1,0,0,1,2,1H12V6a2,2,0,0,0,2,2h4v2H10a3,3,0,0,0-3,3v7a3,3,0,0,0,3,3ZM13,1.5V6a1,1,0,0,0,1,1h3.7L13,1.5ZM10,11a2,2,0,0,0-2,2v7a2,2,0,0,0,2,2H27a2,2,0,0,0,2-2V13a2,2,0,0,0-2-2Zm13,5V14h4V13H22v7h1V17h3V16ZM10,15v5h1V17h2a2,2,0,0,0,0-4H10v2Zm1-1v2h2a1,1,0,0,0,0-2Zm5-1v7h3a2,2,0,0,0,2-2V15a2,2,0,0,0-2-2Zm1,1v5h2a.94.94,0,0,0,1-1V15a.94.94,0,0,0-1-1Z"></path> </g> </g> </g> </g> </svg> 