<svg xmlns="http://www.w3.org/2000/svg" viewBox="0 0 21.62 21.62"><defs><style>.cls-1{fill:#fff;}.cls-2{fill:#0a5d6c;fill-rule:evenodd;}</style></defs><g id="Layer_2" data-name="Layer 2"><g id="Layer_1-2" data-name="Layer 1"><circle class="cls-1" cx="10.81" cy="10.81" r="10.81"/><path class="cls-2" d="M10.81,4.68a6.13,6.13,0,0,0-5.15,9.45l-.93,2a.52.52,0,0,0,.08.57.53.53,0,0,0,.41.19l.14,0,2.56-.71A6.13,6.13,0,1,0,10.81,4.68Zm0,11.19a5.05,5.05,0,0,1-2.55-.69A.5.5,0,0,0,8,15.1l-.14,0-1.68.46.59-1.28a.53.53,0,0,0-.06-.54,5,5,0,0,1-1-2.95,5.06,5.06,0,1,1,5.06,5.06Z"/><path class="cls-2" d="M13.16,11.73a1,1,0,0,0-.89-.2c-.23.09-.38.45-.53.64a.23.23,0,0,1-.29.06,4,4,0,0,1-2-1.73.24.24,0,0,1,0-.34,1.39,1.39,0,0,0,.36-.59,1.37,1.37,0,0,0-.16-.71,1.68,1.68,0,0,0-.52-.78.73.73,0,0,0-.78.11,1.58,1.58,0,0,0-.54,1.25,1.67,1.67,0,0,0,0,.39,3.26,3.26,0,0,0,.38.88,6.19,6.19,0,0,0,2.11,2.19,5,5,0,0,0,1.07.51,2.33,2.33,0,0,0,1.25.2,1.51,1.51,0,0,0,1.13-.84.8.8,0,0,0,0-.43C13.8,12,13.4,11.87,13.16,11.73Z"/></g></g></svg>